# xmcd
#
# Track frame offsets:
#	150
#	16446
#	36466
#	50161
#	66193
#	82748
#	99376
#	113204
#	130963
#	145986
#	163319
#
# Disc length: 2426 seconds
#
# Revision: 4
# Processed by: cddbd v1.5.2PL0 Copyright (c) Steve Scherf et al.
# Submitted via: EasyCDDAExtractor 15.3.0.1
#
DISCID=9c09780b
DTITLE=Alejandra Guzman - Indeleble
DYEAR=2006
DGENRE=Latin
TTITLE0=Quiero Estar Contigo
TTITLE1=Dejalo
TTITLE2=No Estoy Llorando
TTITLE3=Al Final De Cuentas
TTITLE4=Volverte A Amar
TTITLE5=Mujer
TTITLE6=Necesito Amarme
TTITLE7=Tirando Piedras
TTITLE8=Marta
TTITLE9=Bye Bye
TTITLE10=Sienteme A Tu Lado
EXTD=
EXTT0=
EXTT1=
EXTT2=
EXTT3=
EXTT4=
EXTT5=
EXTT6=
EXTT7=
EXTT8=
EXTT9=
EXTT10=
PLAYORDER=
